<?xml version="1.0" standalone="no"?>
<!DOCTYPE svg PUBLIC "-//W3C//DTD SVG 20010904//EN"
 "http://www.w3.org/TR/2001/REC-SVG-20010904/DTD/svg10.dtd">
<svg version="1.0" xmlns="http://www.w3.org/2000/svg"
 width="1280.000000pt" height="1280.000000pt" viewBox="0 0 1280.000000 1280.000000"
 preserveAspectRatio="xMidYMid meet">
<metadata>
Created by potrace 1.14, written by Peter Selinger 2001-2017
</metadata>
<g transform="translate(0.000000,1280.000000) scale(0.100000,-0.100000)"
fill="#000000" stroke="none">
<path d="M8620 10465 c1 -26 2 -28 11 -12 8 14 8 22 0 30 -8 8 -11 3 -11 -18z"/>
<path d="M8655 10426 c10 -14 19 -26 22 -26 7 0 -17 39 -28 46 -6 3 -3 -5 6
-20z"/>
<path d="M8621 10414 c0 -11 3 -14 6 -6 3 7 2 16 -1 19 -3 4 -6 -2 -5 -13z"/>
<path d="M8691 10365 c1 -19 18 -51 18 -35 0 8 -4 22 -9 30 -5 8 -9 11 -9 5z"/>
<path d="M8711 10284 c0 -11 3 -14 6 -6 3 7 2 16 -1 19 -3 4 -6 -2 -5 -13z"/>
<path d="M8721 10224 c0 -11 3 -14 6 -6 3 7 2 16 -1 19 -3 4 -6 -2 -5 -13z"/>
<path d="M8722 10160 c0 -14 2 -19 5 -12 2 6 2 18 0 25 -3 6 -5 1 -5 -13z"/>
<path d="M8669 10023 c-13 -16 -12 -17 4 -4 9 7 17 15 17 17 0 8 -8 3 -21 -13z"/>
<path d="M8639 9983 c-13 -16 -12 -17 4 -4 9 7 17 15 17 17 0 8 -8 3 -21 -13z"/>
<path d="M7874 9771 c-133 -101 -140 -108 -140 -140 1 -28 -5 -38 -26 -50 -23
-13 -31 -14 -48 -3 -24 15 -21 16 -125 -62 -172 -130 -492 -398 -675 -566 -52
-48 -131 -119 -175 -157 -83 -73 -380 -381 -374 -387 14 -13 146 -73 201 -92
129 -44 224 -58 378 -58 166 0 268 16 430 70 110 36 278 120 291 145 4 8 26
52 48 99 64 131 121 184 230 211 l66 16 47 89 c56 105 82 196 103 359 19 148
19 214 0 336 -14 93 -68 285 -83 292 -4 2 -70 -44 -148 -102z m-236 -284 c36
-43 15 -117 -33 -117 -27 0 -55 33 -55 65 0 50 60 86 88 52z m76 -243 c24 -24
19 -49 -14 -78 -32 -26 -55 -26 -77 2 -43 53 43 124 91 76z m-271 -185 c42
-22 48 -48 17 -79 -11 -11 -29 -20 -40 -20 -23 0 -60 33 -60 55 0 17 35 55 51
55 6 0 20 -5 32 -11z m-165 -245 c28 -20 30 -69 3 -84 -34 -18 -69 -12 -86 14
-19 29 -7 62 28 76 30 12 30 12 55 -6z m-363 -38 c29 -12 35 -20 35 -45 0 -54
-73 -71 -109 -25 -26 33 -26 39 -1 64 24 24 30 24 75 6z"/>
<path d="M8337 9791 c-2 -3 2 -32 7 -64 10 -50 13 -56 26 -45 8 7 6 3 -5 -10
-15 -18 -17 -27 -8 -40 5 -9 16 -17 24 -17 15 0 14 72 -1 125 -5 17 -5 30 0
30 4 0 10 6 13 13 4 12 -51 21 -56 8z"/>
<path d="M5970 8456 c0 -2 8 -10 18 -17 15 -13 16 -12 3 4 -13 16 -21 21 -21
13z"/>
<path d="M7611 8424 c0 -11 3 -14 6 -6 3 7 2 16 -1 19 -3 4 -6 -2 -5 -13z"/>
<path d="M6023 8405 c0 -8 4 -12 8 -10 4 3 18 -6 30 -20 13 -13 28 -25 32 -25
8 0 -27 38 -54 58 -12 9 -16 9 -16 -3z"/>
<path d="M5986 8397 c3 -10 9 -15 12 -12 3 3 0 11 -7 18 -10 9 -11 8 -5 -6z"/>
<path d="M6001 8354 c0 -11 3 -14 6 -6 3 7 2 16 -1 19 -3 4 -6 -2 -5 -13z"/>
<path d="M6126 8295 c14 -25 28 -45 30 -45 7 0 -35 78 -45 85 -6 3 2 -15 15
-40z"/>
<path d="M7542 8306 c-18 -6 -30 -15 -25 -20 4 -5 2 -6 -5 -2 -19 11 -92 -4
-92 -19 0 -18 26 -26 53 -16 12 5 47 12 77 16 30 4 59 9 63 12 7 4 -27 44 -35
42 -2 0 -18 -6 -36 -13z m39 -24 c-7 -2 -18 1 -23 6 -8 8 -4 9 13 5 13 -4 18
-8 10 -11z"/>
<path d="M6191 8164 c0 -11 3 -14 6 -6 3 7 2 16 -1 19 -3 4 -6 -2 -5 -13z"/>
<path d="M6201 8124 c0 -11 3 -14 6 -6 3 7 2 16 -1 19 -3 4 -6 -2 -5 -13z"/>
<path d="M6202 8040 c0 -14 2 -19 5 -12 2 6 2 18 0 25 -3 6 -5 1 -5 -13z"/>
<path d="M6469 7801 c-33 -33 -35 -50 -14 -90 15 -31 33 -41 70 -41 37 0 55
10 71 41 18 36 10 73 -23 99 -36 28 -70 25 -104 -9z"/>
<path d="M6019 7683 l-24 -28 28 24 c15 14 27 26 27 28 0 8 -8 1 -31 -24z"/>
<path d="M5935 7630 c-8 -13 6 -40 18 -33 5 3 7 1 4 -5 -4 -5 4 -33 18 -60 14
-27 25 -55 25 -61 0 -12 48 -27 57 -18 9 9 -6 39 -16 33 -5 -3 -8 0 -7 7 0 6
-10 40 -24 74 -18 46 -30 63 -47 66 -13 2 -26 1 -28 -3z m30 -18 c-3 -3 -11 0
-18 7 -9 10 -8 11 6 5 10 -3 15 -9 12 -12z m50 -96 c8 -7 11 -16 8 -19 -5 -6
-33 17 -33 27 0 10 11 7 25 -8z"/>
<path d="M7253 7620 c-75 -30 -44 -150 40 -150 70 0 103 85 52 135 -25 26 -54
30 -92 15z"/>
<path d="M5566 7530 c-14 -21 -63 -88 -108 -148 -105 -139 -125 -172 -104
-172 18 0 36 -30 36 -59 0 -11 -11 -28 -25 -37 -23 -15 -27 -15 -50 0 -13 9
-26 16 -29 16 -2 0 -58 -82 -124 -182 -122 -187 -297 -485 -414 -708 -60 -114
-65 -128 -53 -149 7 -13 10 -33 7 -43 -6 -23 -38 -42 -58 -34 -14 5 -115 -184
-210 -392 l-33 -72 47 -24 c153 -77 341 -119 537 -120 153 0 255 15 385 56
154 49 275 113 408 216 243 189 401 485 419 787 17 297 -118 665 -327 888 -62
66 -194 173 -250 202 -27 14 -28 13 -54 -25z m-16 -338 c25 -20 30 -63 10 -87
-30 -36 -90 -2 -90 50 0 52 40 70 80 37z m-58 -179 c20 -18 24 -63 6 -81 -31
-31 -88 1 -88 49 0 45 47 63 82 32z m294 -198 c15 -23 15 -27 0 -50 -11 -17
-26 -25 -45 -25 -45 0 -69 44 -45 79 22 30 69 28 90 -4z m-98 -161 c16 -11 22
-25 22 -53 0 -38 -9 -52 -43 -64 -48 -18 -79 86 -35 117 12 9 25 16 28 16 3 0
16 -7 28 -16z m73 -234 c29 -16 25 -64 -7 -89 -33 -26 -46 -26 -68 -2 -25 27
-17 72 14 88 31 16 36 16 61 3z m-808 -182 c7 -23 -4 -38 -29 -38 -17 0 -24 6
-24 18 0 10 3 22 7 25 11 12 41 8 46 -5z m558 -18 c12 -7 19 -21 19 -40 0 -32
-22 -50 -62 -50 -31 0 -48 18 -48 50 0 46 44 65 91 40z m-167 -246 c35 -35 7
-84 -48 -84 -38 0 -56 15 -56 46 0 31 26 54 60 54 16 0 36 -7 44 -16z m-356
-40 c44 -28 17 -84 -40 -84 -61 0 -91 63 -46 94 23 17 47 14 86 -10z"/>
<path d="M6667 7533 c-14 -14 -6 -60 17 -93 13 -20 48 -49 77 -65 72 -39 197
-47 274 -18 45 17 50 22 50 48 0 27 -3 30 -30 28 -16 -1 -55 -7 -85 -14 -43
-9 -68 -9 -115 1 -52 10 -67 19 -113 66 -52 54 -63 60 -75 47z"/>
<path d="M7470 7020 c34 -11 60 -11 35 0 -11 5 -29 8 -40 8 -16 0 -15 -2 5 -8z"/>
<path d="M7368 7013 c7 -3 16 -2 19 1 4 3 -2 6 -13 5 -11 0 -14 -3 -6 -6z"/>
<path d="M7588 6993 c6 -2 18 -2 25 0 6 3 1 5 -13 5 -14 0 -19 -2 -12 -5z"/>
<path d="M7163 6916 c-15 -19 -36 -50 -46 -68 -17 -32 -17 -32 0 -8 10 13 33
44 50 67 39 51 36 57 -4 9z"/>
<path d="M7051 6688 c0 -9 -4 -25 -7 -35 -5 -17 -5 -17 6 0 6 10 9 25 7 35 -4
15 -5 15 -6 0z"/>
<path d="M7436 6634 c-19 -76 -129 -178 -220 -204 -47 -13 -80 -8 -152 21 -25
10 -40 9 -88 -6 -53 -17 -58 -17 -74 -2 -23 24 -7 36 69 49 35 6 69 16 74 21
7 6 1 8 -15 4 -24 -6 -24 -5 -6 8 11 8 15 15 9 15 -6 0 -10 8 -8 18 1 9 0 11
-2 5 -5 -13 -121 -53 -154 -53 -21 0 -24 -11 -9 -26 8 -8 -1 -19 -27 -36 -67
-45 -171 -147 -233 -230 -74 -97 -161 -274 -189 -383 -49 -191 -50 -339 -5
-565 61 -301 154 -482 334 -653 194 -183 412 -267 702 -267 213 0 381 39 591
137 l97 46 0 46 c-1 105 -23 247 -69 436 -76 309 -105 546 -103 848 0 144 -3
187 -12 187 -21 0 -46 35 -46 63 0 28 40 64 59 53 11 -7 18 58 26 251 l6 131
-83 32 c-132 51 -224 71 -349 77 l-116 6 -7 -29z m-509 -130 c-3 -3 -12 -4
-19 -1 -8 3 -5 6 6 6 11 1 17 -2 13 -5z m-40 -10 c-3 -3 -12 -4 -19 -1 -8 3
-5 6 6 6 11 1 17 -2 13 -5z m693 -234 c24 -24 25 -48 4 -78 -19 -27 -48 -28
-74 -2 -27 27 -26 65 2 84 30 21 44 20 68 -4z m-272 -52 c37 -37 -12 -113 -57
-88 -26 13 -36 52 -21 79 12 24 58 29 78 9z m496 -54 c22 -22 20 -57 -5 -80
-19 -17 -23 -17 -47 -3 -30 16 -41 61 -21 85 15 19 54 18 73 -2z m-723 -85
c15 -15 19 -27 14 -42 -4 -12 -9 -35 -12 -52 -10 -57 -57 -72 -98 -30 -35 34
-33 78 4 116 35 34 63 37 92 8z m304 -103 c12 -18 13 -30 6 -50 -9 -22 -16
-26 -51 -26 -31 0 -43 5 -56 25 -15 23 -15 27 0 50 23 34 79 35 101 1z m533 8
c27 -18 31 -78 6 -88 -44 -17 -84 7 -84 49 0 20 32 55 50 55 3 0 16 -7 28 -16z
m-768 -194 c11 -11 20 -25 20 -31 0 -21 -53 -79 -73 -79 -29 0 -57 29 -57 60
0 60 68 92 110 50z m-280 -30 c11 -11 20 -27 20 -35 0 -25 -38 -55 -69 -55
-57 0 -83 63 -39 94 31 22 64 20 88 -4z m338 -312 c21 -17 14 -56 -13 -74 -30
-20 -70 -12 -85 16 -30 56 44 100 98 58z m-283 -89 c30 -47 29 -69 -4 -86 -42
-20 -103 23 -103 72 0 35 19 55 53 55 23 0 34 -9 54 -41z m459 -156 c4 -9 1
-23 -7 -30 -7 -8 -21 -11 -30 -7 -17 6 -23 35 -10 47 12 13 41 7 47 -10z m561
-19 c21 -21 16 -63 -10 -80 -16 -10 -26 -10 -52 1 -27 11 -33 20 -33 44 0 47
60 69 95 35z m-854 -74 c10 -6 26 -27 34 -47 14 -32 14 -39 0 -60 -20 -31 -59
-30 -91 2 -33 33 -30 84 6 102 30 15 27 15 51 3z m679 -168 c50 -40 -9 -108
-68 -80 -33 16 -40 52 -16 79 22 24 55 24 84 1z m-342 -46 c22 -22 5 -68 -28
-76 -28 -7 -71 5 -82 23 -12 18 -9 52 5 66 16 16 84 8 105 -13z"/>
<path d="M6100 5459 c0 -11 -4 -18 -9 -14 -5 3 -12 1 -15 -4 -4 -5 2 -8 11 -7
16 3 33 46 19 46 -3 0 -6 -9 -6 -21z"/>
<path d="M6036 5373 c-6 -14 -5 -15 5 -6 7 7 10 15 7 18 -3 3 -9 -2 -12 -12z"/>
<path d="M6091 5294 c0 -11 3 -14 6 -6 3 7 2 16 -1 19 -3 4 -6 -2 -5 -13z"/>
<path d="M6025 5119 c-4 -6 -5 -12 -2 -15 2 -3 7 2 10 11 7 17 1 20 -8 4z"/>
<path d="M6000 5075 c-7 -9 -11 -17 -9 -20 3 -2 10 5 17 15 14 24 10 26 -8 5z"/>
<path d="M5950 5010 c-9 -6 -10 -10 -3 -10 6 0 15 5 18 10 8 12 4 12 -15 0z"/>
<path d="M5904 4974 c-18 -14 -18 -15 4 -4 12 6 22 13 22 15 0 8 -5 6 -26 -11z"/>
<path d="M5318 4898 c-7 -18 -24 -56 -39 -84 -21 -40 -24 -55 -16 -70 10 -18
9 -18 -8 -4 -17 14 -18 13 -12 -3 4 -10 7 -23 7 -28 0 -5 8 -9 18 -9 12 0 23
14 34 44 23 62 65 126 91 136 l22 9 -22 0 c-13 1 -23 5 -23 11 0 5 -9 14 -20
20 -18 10 -22 7 -32 -22z m37 2 c3 -6 -1 -7 -9 -4 -18 7 -21 14 -7 14 6 0 13
-4 16 -10z m-4 -27 c13 -17 13 -17 -6 -3 -11 8 -22 16 -24 17 -2 2 0 3 6 3 6
0 17 -8 24 -17z m-28 -18 c-3 -9 -8 -14 -10 -11 -3 3 -2 9 2 15 9 16 15 13 8
-4z m8 -32 c-12 -20 -14 -14 -5 12 4 9 9 14 11 11 3 -2 0 -13 -6 -23z m-43
-38 c-6 -14 -13 -23 -15 -21 -5 5 15 46 22 46 3 0 -1 -11 -7 -25z"/>
<path d="M5438 4883 c12 -2 32 -2 45 0 12 2 2 4 -23 4 -25 0 -35 -2 -22 -4z"/>
<path d="M5582 3045 c0 -16 2 -22 5 -12 2 9 2 23 0 30 -3 6 -5 -1 -5 -18z"/>
<path d="M4841 3041 c-30 -19 -4 -38 57 -40 33 -1 93 -8 133 -16 41 -7 76 -12
78 -9 6 6 -104 53 -152 64 -53 12 -98 12 -116 1z"/>
<path d="M6822 2940 c0 -14 2 -19 5 -12 2 6 2 18 0 25 -3 6 -5 1 -5 -13z"/>
<path d="M6091 2931 c-29 -19 -2 -38 81 -54 111 -23 208 -35 208 -26 0 37
-250 107 -289 80z"/>
<path d="M4704 2906 c-4 -9 -4 -19 -2 -22 3 -3 52 -3 109 -2 98 3 102 4 74 17
-16 8 -63 16 -102 19 -61 3 -74 2 -79 -12z"/>
<path d="M5524 2818 l-19 -23 23 19 c12 11 22 21 22 23 0 8 -8 2 -26 -19z"/>
<path d="M5987 2819 c-39 -22 -17 -36 77 -47 52 -7 105 -12 118 -12 l23 1 -25
14 c-60 34 -166 58 -193 44z"/>
<path d="M6821 2804 c0 -11 3 -14 6 -6 3 7 2 16 -1 19 -3 4 -6 -2 -5 -13z"/>
<path d="M6771 2697 c-13 -21 -12 -21 5 -5 10 10 16 20 13 22 -3 3 -11 -5 -18
-17z"/>
<path d="M5148 2683 c7 -3 16 -2 19 1 4 3 -2 6 -13 5 -11 0 -14 -3 -6 -6z"/>
<path d="M4968 2653 c6 -2 18 -2 25 0 6 3 1 5 -13 5 -14 0 -19 -2 -12 -5z"/>
<path d="M6498 2593 c7 -3 16 -2 19 1 4 3 -2 6 -13 5 -11 0 -14 -3 -6 -6z"/>
<path d="M5660 2556 c0 -2 8 -10 18 -17 15 -13 16 -12 3 4 -13 16 -21 21 -21
13z"/>
<path d="M6128 2503 c6 -2 18 -2 25 0 6 3 1 5 -13 5 -14 0 -19 -2 -12 -5z"/>
<path d="M6048 2493 c6 -2 18 -2 25 0 6 3 1 5 -13 5 -14 0 -19 -2 -12 -5z"/>
<path d="M5878 2483 c6 -2 18 -2 25 0 6 3 1 5 -13 5 -14 0 -19 -2 -12 -5z"/>
<path d="M5973 2483 c9 -2 23 -2 30 0 6 3 -1 5 -18 5 -16 0 -22 -2 -12 -5z"/>
</g>
</svg>
